<svg xmlns="http://www.w3.org/2000/svg" width="16" height="16" fill="none" viewBox="0 0 16 16"><path fill="#000" d="M5.75 10.8564c.3 0 .5-.2.5-.5s-.2-.49995-.5-.49995-.5.19995-.5.49995.2.5.5.5"/><path fill="#000" d="M15 2.85645h-2V.856445h-1V2.85645H4V.856445H3V2.85645H1c-.6 0-1 .4-1 1V14.8564c0 .5.4 1 1 1h14c.5 0 1-.5 1-1V3.85645c0-.6-.5-1-1-1m0 11.99995H1V7.85645h14zM1 6.85645v-3h2v2h1v-2h8v2h1v-2h2v3z"/><path fill="#000" d="M8 10.8564c.3 0 .5-.2.5-.5s-.2-.49995-.5-.49995-.5.19995-.5.49995.2.5.5.5M10.25 10.8564c.3 0 .5-.2.5-.5s-.2-.49995-.5-.49995-.5.19995-.5.49995.2.5.5.5M5.75 11.8564c-.3 0-.5.2-.5.5s.2.5.5.5.5-.2.5-.5-.2-.5-.5-.5M3.5 10.8564c.3 0 .5-.2.5-.5s-.2-.49995-.5-.49995-.5.19995-.5.49995.2.5.5.5M3.5 11.8564c-.3 0-.5.2-.5.5s.2.5.5.5.5-.2.5-.5-.2-.5-.5-.5M8 11.8564c-.3 0-.5.2-.5.5s.2.5.5.5.5-.2.5-.5-.2-.5-.5-.5M10.25 11.8564c-.3 0-.5.2-.5.5s.2.5.5.5.5-.2.5-.5-.2-.5-.5-.5M12.5 10.8564c.3 0 .5-.2.5-.5s-.2-.49995-.5-.49995-.5.19995-.5.49995.2.5.5.5M12.5 11.8564c-.3 0-.5.2-.5.5s.2.5.5.5.5-.2.5-.5-.2-.5-.5-.5"/></svg>